<?xml version="1.0" encoding="UTF-8" standalone="no"?>
<!DOCTYPE svg PUBLIC "-//W3C//DTD SVG 1.1//EN" "http://www.w3.org/Graphics/SVG/1.1/DTD/svg11.dtd">
<svg version="1.1" xmlns="http://www.w3.org/2000/svg" xmlns:xlink="http://www.w3.org/1999/xlink" preserveAspectRatio="xMidYMid meet" viewBox="0 0 600 400" width="600" height="400"><defs><path d="M154.09 35.04C162.92 35.04 170.07 42.19 170.07 51.01C170.07 106.55 170.07 257.2 170.07 312.74C170.07 321.56 162.92 328.71 154.09 328.71C126.06 328.71 57.93 328.71 29.9 328.71C21.08 328.71 13.93 321.56 13.93 312.74C13.93 257.2 13.93 106.55 13.93 51.01C13.93 42.19 21.08 35.04 29.9 35.04C57.93 35.04 126.06 35.04 154.09 35.04Z" id="abcVWIFKz"></path><path d="M126.74 36.67C129.7 36.67 132.1 39.07 132.1 42.04C132.1 43.17 132.1 41.22 132.1 42.35C132.1 45.31 129.7 47.72 126.74 47.72C112.08 47.72 73.46 47.72 58.79 47.72C55.83 47.72 53.43 45.31 53.43 42.35C53.43 41.22 53.43 43.17 53.43 42.04C53.43 39.07 55.83 36.67 58.79 36.67C73.46 36.67 112.08 36.67 126.74 36.67Z" id="g6PQ8SizD7"></path><path d="M121.27 192.78C126.65 186.61 129.71 182.7 130.45 181.05C130.45 181.05 143.71 151.75 143.71 151.75C143.95 151.23 144.54 149.93 145.48 147.85C125.56 148.46 107.73 154.65 92 166.4C79.24 175.94 66.51 191.38 53.82 212.71C49.13 220.59 46.26 229.42 45.42 238.55C43.43 260.12 57.48 270.84 87.56 270.71C126.44 270.54 137.67 255.2 121.27 224.68L114.69 216.71L111.24 224.68L106.08 224.68L102.64 216.71L97.72 224.68C94.08 221.84 91.81 220.06 90.9 219.35C90.61 219.13 90.66 218.68 90.99 218.51C100.12 214.04 110.22 205.46 121.27 192.78Z" id="i4RjLN6dcl"></path><path d="" id="a3WyaNlK2N"></path><path d="M495.13 91.72C452.36 58.59 416.38 45.96 387.19 53.83C343.4 65.63 359.56 111.9 319.97 138.93C280.39 165.96 264.82 142.17 228.84 161.94C204.86 175.12 187.27 193.81 176.07 218" id="a2AVDpWXOV"></path><path d="M579.28 188.69C590.73 188.69 600 197.96 600 209.4C600 221.89 600 238.62 600 251.1C600 262.54 590.73 271.82 579.28 271.82C551.99 271.82 490.83 271.82 463.53 271.82C452.09 271.82 442.82 262.54 442.82 251.1C442.82 238.62 442.82 221.89 442.82 209.4C442.82 197.96 452.09 188.69 463.53 188.69C490.83 188.69 551.99 188.69 579.28 188.69Z" id="cAnASpfXR"></path><path d="M550.16 95.9C561.6 95.97 570.82 105.3 570.75 116.74C570.63 135.08 570.41 169.41 570.29 187.75C570.22 199.19 560.89 208.41 549.45 208.35C536.98 208.27 520.28 208.18 507.81 208.1C496.37 208.04 487.16 198.71 487.23 187.27C487.35 168.92 487.57 134.6 487.68 116.25C487.75 104.81 497.09 95.59 508.53 95.66C521 95.73 537.69 95.83 550.16 95.9Z" id="c1fv287mCU"></path><path d="M550.07 123.9C542.83 123.9 528.35 123.9 506.62 123.9" id="b6PCFCtNK"></path><path d="M550.71 136.05C543.47 136.05 528.99 136.05 507.26 136.05" id="aBtQqcFe"></path><path d="M550.07 152C542.83 152 528.35 152 506.62 152" id="a3GrBXpth"></path><path d="M550.07 182.55C542.83 182.55 528.35 182.55 506.62 182.55" id="e4SyXcClG6"></path><path d="M550.07 166.42C542.83 166.42 528.35 166.42 506.62 166.42" id="a11m3qH0ZN"></path><path d="M458.82 176.39C466.92 176.39 473.49 182.95 473.49 191.06C473.49 209.16 473.49 248.82 473.49 266.93C473.49 275.03 466.92 281.6 458.82 281.6C455.62 281.6 460.69 281.6 457.49 281.6C449.38 281.6 442.82 275.03 442.82 266.93C442.82 248.82 442.82 209.16 442.82 191.06C442.82 182.95 449.38 176.39 457.49 176.39C460.69 176.39 455.62 176.39 458.82 176.39Z" id="bHLvEQtTP"></path><path d="M487.23 221.66L570.75 221.66L570.75 236.33L487.23 236.33L487.23 221.66Z" id="b6XqU9RtU"></path><path d="M267.85 142.11C275.21 143.85 279.74 151.26 277.94 158.61C275.03 170.43 269.6 192.53 266.7 204.35C264.88 211.73 257.45 216.28 250.05 214.52C241.51 212.5 229.27 209.6 220.74 207.57C213.37 205.83 208.84 198.41 210.65 191.06C213.55 179.25 218.99 157.15 221.89 145.33C223.7 137.94 231.13 133.4 238.54 135.16C247.07 137.18 259.31 140.08 267.85 142.11Z" id="bWstS2HCf"></path><path d="M262.87 160C257.97 158.87 248.19 156.61 233.51 153.22" id="a5GSAhOw76"></path><path d="M261.43 167.95C256.53 166.81 246.75 164.55 232.07 161.16" id="byhyGzB6l"></path><path d="M258.54 178.13C253.65 177 243.86 174.74 229.18 171.35" id="a3ZwC4JyGL"></path><path d="M253.83 197.84C248.94 196.71 239.16 194.45 224.48 191.05" id="bdgcvgJUx"></path><path d="M256.32 187.43C251.43 186.3 241.64 184.04 226.96 180.65" id="c3McPieCgt"></path><path d="M433.8 39.69C438.05 40.87 440.54 45.27 439.35 49.52C437.45 56.33 433.89 69.08 431.99 75.9C430.81 80.15 426.4 82.64 422.15 81.45C417.33 80.11 410.56 78.23 405.73 76.89C401.48 75.71 399 71.31 400.18 67.06C402.08 60.24 405.64 47.49 407.54 40.68C408.73 36.43 413.13 33.94 417.38 35.12C422.21 36.46 428.98 38.35 433.8 39.69Z" id="dKfo21LZ0"></path><path d="M430.7 50.03C427.92 49.27 422.37 47.76 414.03 45.5" id="e6QNbR2yq1"></path><path d="M429.71 54.62C426.94 53.86 421.38 52.35 413.05 50.09" id="e3YXPI7aSR"></path><path d="M427.85 60.49C425.08 59.73 419.52 58.22 411.19 55.96" id="e5oICOJAQh"></path><path d="M424.76 71.86C421.99 71.1 416.43 69.59 408.1 67.33" id="c2mBURypcJ"></path><path d="M426.4 65.85C423.62 65.1 418.06 63.59 409.73 61.32" id="a1LVjvjPOo"></path><path d="M185.38 182.4L201.85 194.85" id="g28EkFhCF"></path><path d="M375.96 74.38C381.69 75.64 385.32 81.31 384.05 87.04C382.02 96.23 378.23 113.43 376.2 122.63C374.93 128.36 369.26 131.99 363.52 130.72C357.02 129.3 347.89 127.29 341.38 125.86C335.65 124.6 332.02 118.93 333.29 113.2C335.32 104 339.11 86.81 341.14 77.61C342.41 71.88 348.08 68.25 353.82 69.51C360.32 70.94 369.45 72.95 375.96 74.38Z" id="bqy05wx4e"></path><path d="M372.59 88.35C368.85 87.55 361.36 85.95 350.12 83.54" id="a16UmxSYTb"></path><path d="M371.62 94.52C367.87 93.72 360.38 92.12 349.15 89.71" id="b7vTdqiCm"></path><path d="M369.58 102.45C365.83 101.65 358.34 100.05 347.1 97.65" id="ab5TjAhW3N"></path><path d="M366.3 117.78C362.55 116.98 355.06 115.38 343.83 112.98" id="ajOYnCTiP"></path><path d="M368.03 109.68C364.28 108.88 356.79 107.28 345.56 104.88" id="d55VCh5RcJ"></path><path d="M357.65 116.01C363.27 119.62 364.9 127.09 361.29 132.71C355.5 141.71 344.67 158.56 338.87 167.56C335.26 173.17 327.78 174.8 322.16 171.2C315.79 167.1 306.84 161.36 300.47 157.27C294.85 153.67 293.22 146.19 296.83 140.57C302.62 131.57 313.46 114.73 319.25 105.72C322.86 100.11 330.34 98.48 335.96 102.09C342.33 106.18 351.28 111.92 357.65 116.01Z" id="cCs7MstGT"></path><path d="M348.55 129.58C344.87 127.25 337.52 122.58 326.48 115.59" id="d4gDvC9nLc"></path><path d="M345.08 135.78C341.4 133.44 334.04 128.78 323.01 121.79" id="fJHlr22bd"></path><path d="M339.77 143.43C336.09 141.1 328.74 136.44 317.7 129.44" id="b9XIfvcWP"></path><path d="M330.23 158.49C326.55 156.15 319.19 151.49 308.16 144.5" id="b2E6vwB8Qx"></path><path d="M335.27 150.53C331.59 148.2 324.23 143.54 313.2 136.54" id="g7Ll0G7pv"></path><path d="M484.24 73.22L472.59 90.27" id="c16uphHWDf"></path><path d="M378.99 51.56L389.61 69.26" id="hPfLW2UOE"></path><path d="M461.8 58.79L449.66 75.49" id="aHuWj4FdQ"></path><path d="M470.94 49.44L481.56 67.14" id="bePO6mlBr"></path></defs><g><g><g><g><use xlink:href="#abcVWIFKz" opacity="1" fill="#fffefe" fill-opacity="1"></use><g><use xlink:href="#abcVWIFKz" opacity="1" fill-opacity="0" stroke="#5f6262" stroke-width="12" stroke-opacity="1"></use></g></g><g><use xlink:href="#g6PQ8SizD7" opacity="1" fill="#fffefe" fill-opacity="1"></use><g><use xlink:href="#g6PQ8SizD7" opacity="1" fill-opacity="0" stroke="#5f6262" stroke-width="12" stroke-opacity="1"></use></g></g></g><g><use xlink:href="#i4RjLN6dcl" opacity="1" fill="#3f51b5" fill-opacity="1"></use><g><filter id="shadow7921851" x="22.42" y="124.85" width="148.06" height="170.86" filterUnits="userSpaceOnUse" primitiveUnits="userSpaceOnUse"><feFlood></feFlood><feComposite in2="SourceAlpha" operator="out"></feComposite><feGaussianBlur stdDeviation="2.45"></feGaussianBlur><feOffset dx="-2" dy="-2" result="afterOffset"></feOffset><feFlood flood-color="#48539f" flood-opacity="0.8"></feFlood><feComposite in2="afterOffset" operator="in"></feComposite><feMorphology operator="dilate" radius="4"></feMorphology><feComposite in2="SourceAlpha" operator="in"></feComposite></filter><path d="M121.27 192.78C126.65 186.61 129.71 182.7 130.45 181.05C130.45 181.05 143.71 151.75 143.71 151.75C143.95 151.23 144.54 149.93 145.48 147.85C125.56 148.46 107.73 154.65 92 166.4C79.24 175.94 66.51 191.38 53.82 212.71C49.13 220.59 46.26 229.42 45.42 238.55C43.43 260.12 57.48 270.84 87.56 270.71C126.44 270.54 137.67 255.2 121.27 224.68L114.69 216.71L111.24 224.68L106.08 224.68L102.64 216.71L97.72 224.68C94.08 221.84 91.81 220.06 90.9 219.35C90.61 219.13 90.66 218.68 90.99 218.51C100.12 214.04 110.22 205.46 121.27 192.78Z" id="b3WrRVrfV3" fill="white" fill-opacity="1" filter="url(#shadow7921851)"></path></g></g><g><g><use xlink:href="#a3WyaNlK2N" opacity="1" fill-opacity="0" stroke="#5f6262" stroke-width="1" stroke-opacity="1"></use></g></g><g><g><use xlink:href="#a2AVDpWXOV" opacity="1" fill-opacity="0" stroke="#5e6060" stroke-width="2" stroke-opacity="1"></use></g></g><g><g><use xlink:href="#cAnASpfXR" opacity="1" fill="#5f6262" fill-opacity="1"></use><g><use xlink:href="#cAnASpfXR" opacity="1" fill-opacity="0" stroke="#5f6262" stroke-width="1" stroke-opacity="1"></use></g></g><g><g><use xlink:href="#c1fv287mCU" opacity="1" fill="#ffffff" fill-opacity="1"></use><g><use xlink:href="#c1fv287mCU" opacity="1" fill-opacity="0" stroke="#6b6b6b" stroke-width="7" stroke-opacity="1"></use></g></g><g><g><use xlink:href="#b6PCFCtNK" opacity="1" fill-opacity="0" stroke="#5e6060" stroke-width="3" stroke-opacity="1"></use></g></g><g><g><use xlink:href="#aBtQqcFe" opacity="1" fill-opacity="0" stroke="#5e6060" stroke-width="3" stroke-opacity="1"></use></g></g><g><g><use xlink:href="#a3GrBXpth" opacity="1" fill-opacity="0" stroke="#5e6060" stroke-width="3" stroke-opacity="1"></use></g></g><g><g><use xlink:href="#e4SyXcClG6" opacity="1" fill-opacity="0" stroke="#5e6060" stroke-width="3" stroke-opacity="1"></use></g></g><g><g><use xlink:href="#a11m3qH0ZN" opacity="1" fill-opacity="0" stroke="#5e6060" stroke-width="3" stroke-opacity="1"></use></g></g></g><g><use xlink:href="#bHLvEQtTP" opacity="1" fill="#fcffff" fill-opacity="1"></use><g><use xlink:href="#bHLvEQtTP" opacity="1" fill-opacity="0" stroke="#5e6060" stroke-width="8" stroke-opacity="1"></use></g></g><g><use xlink:href="#b6XqU9RtU" opacity="1" fill="#ffffff" fill-opacity="1"></use></g></g><g><g><use xlink:href="#bWstS2HCf" opacity="1" fill="#ffffff" fill-opacity="1"></use><g><use xlink:href="#bWstS2HCf" opacity="1" fill-opacity="0" stroke="#6b6b6b" stroke-width="5" stroke-opacity="1"></use></g></g><g><g><use xlink:href="#a5GSAhOw76" opacity="1" fill-opacity="0" stroke="#5e6060" stroke-width="3" stroke-opacity="1"></use></g></g><g><g><use xlink:href="#byhyGzB6l" opacity="1" fill-opacity="0" stroke="#5e6060" stroke-width="3" stroke-opacity="1"></use></g></g><g><g><use xlink:href="#a3ZwC4JyGL" opacity="1" fill-opacity="0" stroke="#5e6060" stroke-width="3" stroke-opacity="1"></use></g></g><g><g><use xlink:href="#bdgcvgJUx" opacity="1" fill-opacity="0" stroke="#5e6060" stroke-width="3" stroke-opacity="1"></use></g></g><g><g><use xlink:href="#c3McPieCgt" opacity="1" fill-opacity="0" stroke="#5e6060" stroke-width="3" stroke-opacity="1"></use></g></g></g><g><g><use xlink:href="#dKfo21LZ0" opacity="1" fill="#ffffff" fill-opacity="1"></use><g><use xlink:href="#dKfo21LZ0" opacity="1" fill-opacity="0" stroke="#6b6b6b" stroke-width="4" stroke-opacity="1"></use></g></g><g><g><use xlink:href="#e6QNbR2yq1" opacity="1" fill-opacity="0" stroke="#5e6060" stroke-width="3" stroke-opacity="1"></use></g></g><g><g><use xlink:href="#e3YXPI7aSR" opacity="1" fill-opacity="0" stroke="#5e6060" stroke-width="3" stroke-opacity="1"></use></g></g><g><g><use xlink:href="#e5oICOJAQh" opacity="1" fill-opacity="0" stroke="#5e6060" stroke-width="3" stroke-opacity="1"></use></g></g><g><g><use xlink:href="#c2mBURypcJ" opacity="1" fill-opacity="0" stroke="#5e6060" stroke-width="3" stroke-opacity="1"></use></g></g><g><g><use xlink:href="#a1LVjvjPOo" opacity="1" fill-opacity="0" stroke="#5e6060" stroke-width="3" stroke-opacity="1"></use></g></g></g><g><use xlink:href="#g28EkFhCF" opacity="1" fill="#ffffff" fill-opacity="1"></use><g><use xlink:href="#g28EkFhCF" opacity="1" fill-opacity="0" stroke="#ffffff" stroke-width="8" stroke-opacity="1"></use></g></g><g><g><g><use xlink:href="#bqy05wx4e" opacity="1" fill="#ffffff" fill-opacity="1"></use><g><use xlink:href="#bqy05wx4e" opacity="1" fill-opacity="0" stroke="#6b6b6b" stroke-width="4" stroke-opacity="1"></use></g></g><g><g><use xlink:href="#a16UmxSYTb" opacity="1" fill-opacity="0" stroke="#5e6060" stroke-width="3" stroke-opacity="1"></use></g></g><g><g><use xlink:href="#b7vTdqiCm" opacity="1" fill-opacity="0" stroke="#5e6060" stroke-width="3" stroke-opacity="1"></use></g></g><g><g><use xlink:href="#ab5TjAhW3N" opacity="1" fill-opacity="0" stroke="#5e6060" stroke-width="3" stroke-opacity="1"></use></g></g><g><g><use xlink:href="#ajOYnCTiP" opacity="1" fill-opacity="0" stroke="#5e6060" stroke-width="3" stroke-opacity="1"></use></g></g><g><g><use xlink:href="#d55VCh5RcJ" opacity="1" fill-opacity="0" stroke="#5e6060" stroke-width="3" stroke-opacity="1"></use></g></g></g><g><g><use xlink:href="#cCs7MstGT" opacity="1" fill="#ffffff" fill-opacity="1"></use><g><use xlink:href="#cCs7MstGT" opacity="1" fill-opacity="0" stroke="#6b6b6b" stroke-width="5" stroke-opacity="1"></use></g></g><g><g><use xlink:href="#d4gDvC9nLc" opacity="1" fill-opacity="0" stroke="#5e6060" stroke-width="3" stroke-opacity="1"></use></g></g><g><g><use xlink:href="#fJHlr22bd" opacity="1" fill-opacity="0" stroke="#5e6060" stroke-width="3" stroke-opacity="1"></use></g></g><g><g><use xlink:href="#b9XIfvcWP" opacity="1" fill-opacity="0" stroke="#5e6060" stroke-width="3" stroke-opacity="1"></use></g></g><g><g><use xlink:href="#b2E6vwB8Qx" opacity="1" fill-opacity="0" stroke="#5e6060" stroke-width="3" stroke-opacity="1"></use></g></g><g><g><use xlink:href="#g7Ll0G7pv" opacity="1" fill-opacity="0" stroke="#5e6060" stroke-width="3" stroke-opacity="1"></use></g></g></g></g><g><g><use xlink:href="#c16uphHWDf" opacity="1" fill-opacity="0" stroke="#ffffff" stroke-width="9" stroke-opacity="1"></use></g></g><g><g><use xlink:href="#hPfLW2UOE" opacity="1" fill-opacity="0" stroke="#ffffff" stroke-width="9" stroke-opacity="1"></use></g></g><g><g><use xlink:href="#aHuWj4FdQ" opacity="1" fill-opacity="0" stroke="#ffffff" stroke-width="9" stroke-opacity="1"></use></g></g><g><g><use xlink:href="#bePO6mlBr" opacity="1" fill-opacity="0" stroke="#ffffff" stroke-width="9" stroke-opacity="1"></use></g></g></g></g></svg>